<?xml version="1.0" encoding="UTF-8"?>
<!-- Generator: visioncortex VTracer 0.6.4 -->
<svg version="1.1" xmlns="http://www.w3.org/2000/svg" width="1024" height="362">
<path d="M0 0 C1.19 -0.01 2.38 -0.01 3.61 -0.02 C4.92 -0.02 6.23 -0.03 7.59 -0.03 C8.98 -0.04 10.37 -0.04 11.76 -0.05 C15.54 -0.07 19.33 -0.08 23.11 -0.09 C25.48 -0.09 27.84 -0.1 30.21 -0.1 C37.6 -0.12 45 -0.14 52.39 -0.15 C60.93 -0.15 69.47 -0.18 78.01 -0.22 C84.61 -0.25 91.21 -0.27 97.81 -0.27 C101.75 -0.27 105.69 -0.28 109.64 -0.31 C113.35 -0.33 117.05 -0.33 120.76 -0.32 C122.77 -0.32 124.78 -0.34 126.79 -0.36 C128.59 -0.35 128.59 -0.35 130.42 -0.34 C131.46 -0.34 132.5 -0.35 133.57 -0.35 C137.16 0.28 138.82 1.63 141.4 4.15 C144.15 10.42 143.71 17.09 143.7 23.83 C143.71 25.05 143.71 26.27 143.72 27.52 C143.72 30.09 143.72 32.65 143.72 35.22 C143.71 39.13 143.74 43.05 143.76 46.97 C143.77 49.46 143.77 51.96 143.77 54.46 C143.77 55.63 143.78 56.79 143.79 58 C143.75 64.98 143.41 70.39 138.9 76.02 C135.51 78.57 132.07 78.27 128 78.26 C127.35 78.26 126.69 78.26 126.02 78.26 C123.9 78.26 121.79 78.25 119.67 78.24 C118.38 78.24 117.08 78.24 115.75 78.24 C110.9 78.24 106.06 78.22 101.21 78.21 C84.97 78.18 84.97 78.18 68.4 78.15 C68.4 102.24 68.4 126.33 68.4 151.15 C213.6 151.15 358.8 151.15 508.4 151.15 C508.4 127.06 508.4 102.97 508.4 78.15 C487.56 78.27 487.56 78.27 466.73 78.42 C464.12 78.43 461.5 78.43 458.89 78.44 C458.22 78.45 457.54 78.46 456.84 78.46 C454.84 78.49 452.84 78.49 450.84 78.49 C449.72 78.49 448.59 78.5 447.43 78.51 C443.12 78 440.49 76.39 437.65 73.15 C435.44 69.6 435.27 66.68 435.24 62.59 C435.23 61.46 435.22 60.32 435.21 59.14 C435.21 57.91 435.2 56.68 435.2 55.41 C435.19 54.15 435.19 52.88 435.18 51.57 C435.17 48.89 435.17 46.21 435.16 43.53 C435.16 40.1 435.13 36.68 435.1 33.25 C435.08 29.97 435.08 26.69 435.07 23.41 C435.06 22.19 435.05 20.97 435.04 19.71 C435.05 13.45 435.12 8.56 438.4 3.15 C441.61 0.11 443.88 -0.23 448.23 -0.25 C450.02 -0.26 450.02 -0.26 451.84 -0.28 C453.8 -0.28 453.8 -0.28 455.8 -0.27 C457.19 -0.28 458.58 -0.29 459.97 -0.3 C463.74 -0.32 467.51 -0.32 471.28 -0.32 C474.44 -0.32 477.59 -0.33 480.74 -0.34 C488.17 -0.36 495.61 -0.36 503.04 -0.35 C510.71 -0.35 518.38 -0.37 526.04 -0.41 C532.63 -0.44 539.21 -0.45 545.8 -0.45 C549.73 -0.44 553.66 -0.45 557.59 -0.47 C561.29 -0.5 564.99 -0.49 568.69 -0.47 C570.69 -0.47 572.69 -0.49 574.69 -0.51 C584.49 -0.42 584.49 -0.42 588.19 2.5 C591.43 6.38 591.53 9.19 591.58 14.08 C591.59 15.31 591.6 16.53 591.62 17.79 C591.63 19.12 591.63 20.46 591.64 21.79 C591.64 22.47 591.65 23.14 591.65 23.83 C591.67 27.4 591.69 30.97 591.7 34.53 C591.71 38.21 591.74 41.88 591.78 45.56 C591.81 48.39 591.82 51.23 591.82 54.06 C591.83 56.07 591.85 58.08 591.88 60.09 C591.86 70.28 591.86 70.28 589.69 73.9 C585.52 78 581.56 78.4 575.87 78.37 C573.89 78.37 573.89 78.37 571.87 78.37 C570.48 78.36 569.09 78.35 567.7 78.34 C566.42 78.34 565.15 78.34 563.84 78.34 C559.09 78.33 554.34 78.3 549.59 78.27 C533.66 78.21 533.66 78.21 517.4 78.15 C517.4 102.24 517.4 126.33 517.4 151.15 C567.56 151.15 617.72 151.15 669.4 151.15 C669.4 138.28 669.4 125.41 669.4 112.15 C676.15 114.4 676.15 114.4 679.27 115.96 C679.97 116.31 680.67 116.66 681.39 117.01 C682.13 117.39 682.87 117.76 683.63 118.15 C684.42 118.54 685.21 118.94 686.03 119.34 C687.7 120.18 689.37 121.02 691.05 121.87 C693.53 123.12 696.03 124.37 698.52 125.61 C706.52 129.62 714.48 133.69 722.38 137.89 C734.39 144.26 746.57 150.29 758.74 156.35 C761.87 157.91 765 159.47 768.13 161.04 C774.22 164.08 780.31 167.11 786.4 170.15 C786.4 170.81 786.4 171.47 786.4 172.15 C785.55 172.56 784.69 172.97 783.81 173.4 C779.38 175.54 774.95 177.68 770.53 179.83 C769.68 180.25 768.82 180.66 767.94 181.09 C754.01 187.87 740.13 194.77 726.27 201.71 C725.44 202.13 724.61 202.55 723.75 202.98 C715.27 207.23 706.79 211.48 698.32 215.75 C695.09 217.37 691.87 218.99 688.64 220.6 C687.12 221.37 685.59 222.14 684.07 222.9 C681.97 223.96 679.87 225.02 677.77 226.07 C677.15 226.38 676.53 226.7 675.89 227.02 C671.63 229.15 671.63 229.15 669.4 229.15 C669.4 216.61 669.4 204.07 669.4 191.15 C545.32 191.15 421.24 191.15 293.4 191.15 C293.4 215.9 293.4 240.65 293.4 266.15 C315.23 265.99 315.23 265.99 337.05 265.79 C339.79 265.78 342.52 265.76 345.26 265.76 C345.97 265.75 346.67 265.74 347.4 265.72 C349.5 265.7 351.59 265.69 353.68 265.69 C354.86 265.68 356.04 265.68 357.26 265.67 C361.1 266.25 362.69 267.41 365.4 270.15 C367.64 273.4 367.66 276.22 367.68 280.11 C367.69 281.31 367.7 282.51 367.71 283.75 C367.7 285.04 367.7 286.34 367.7 287.67 C367.71 289.02 367.71 290.37 367.72 291.71 C367.72 294.54 367.72 297.36 367.72 300.18 C367.71 303.79 367.73 307.39 367.75 311 C367.77 313.78 367.77 316.57 367.76 319.35 C367.77 321.32 367.78 323.3 367.79 325.27 C367.78 327.08 367.78 327.08 367.77 328.93 C367.78 329.99 367.78 331.05 367.78 332.14 C367.18 336.9 365.86 340 362.04 343 C356.44 344.77 350.99 344.56 345.15 344.54 C343.8 344.54 342.45 344.54 341.1 344.55 C337.44 344.56 333.78 344.56 330.13 344.55 C326.29 344.54 322.46 344.55 318.63 344.55 C312.19 344.56 305.76 344.55 299.32 344.54 C291.89 344.52 284.45 344.53 277.02 344.54 C270.63 344.56 264.24 344.56 257.85 344.55 C254.04 344.55 250.22 344.55 246.41 344.56 C242.82 344.56 239.24 344.56 235.65 344.54 C233.72 344.54 231.78 344.54 229.84 344.55 C218.64 344.47 218.64 344.47 214.4 341.15 C211.7 337.06 211.02 333.81 211 328.96 C210.98 327.16 210.98 327.16 210.96 325.32 C210.96 323.39 210.96 323.39 210.97 321.43 C210.96 320.08 210.96 318.74 210.95 317.39 C210.94 314.58 210.95 311.77 210.96 308.96 C210.97 305.37 210.95 301.78 210.92 298.19 C210.9 295.41 210.9 292.64 210.91 289.87 C210.91 287.9 210.89 285.94 210.87 283.97 C210.96 272.82 210.96 272.82 215.4 268.15 C218.99 265.76 220.54 265.9 224.8 265.92 C225.46 265.92 226.11 265.92 226.78 265.92 C228.9 265.92 231.02 265.94 233.13 265.95 C234.43 265.95 235.72 265.96 237.06 265.96 C241.9 265.97 246.74 266 251.59 266.02 C267.83 266.08 267.83 266.08 284.4 266.15 C284.4 241.4 284.4 216.65 284.4 191.15 C157.35 191.15 30.3 191.15 -100.6 191.15 C-101.26 192.47 -101.92 193.79 -102.6 195.15 C-109.85 205.07 -119.68 210.82 -131.47 213.9 C-147.49 215.18 -160.38 212.44 -172.79 201.96 C-181.7 193.63 -187.01 182.73 -187.76 170.53 C-188.18 156.4 -184.05 143.9 -174.41 133.33 C-164.1 123.92 -151.47 119.42 -137.6 119.87 C-125.33 121 -113.69 125.88 -105.2 135.05 C-96.6 146.33 -96.6 146.33 -96.6 151.15 C-44.79 151.15 7.02 151.15 60.4 151.15 C60.4 127.06 60.4 102.97 60.4 78.15 C39.28 78.31 39.28 78.31 18.16 78.51 C15.51 78.52 12.86 78.53 10.21 78.54 C9.52 78.55 8.84 78.56 8.14 78.57 C6.11 78.6 4.08 78.6 2.05 78.6 C0.91 78.61 -0.23 78.62 -1.41 78.63 C-5.38 78.03 -7.51 76.68 -10.6 74.15 C-12.94 70.92 -12.87 67.92 -12.9 64.01 C-12.92 62.76 -12.94 61.52 -12.95 60.24 C-12.96 58.89 -12.96 57.54 -12.97 56.19 C-12.98 54.79 -12.99 53.4 -13 52.01 C-13.01 49.09 -13.02 46.18 -13.02 43.26 C-13.03 39.53 -13.07 35.8 -13.11 32.08 C-13.14 29.2 -13.15 26.32 -13.15 23.45 C-13.15 22.07 -13.17 20.7 -13.19 19.33 C-13.36 7.25 -13.36 7.25 -10.19 3.32 C-6.49 0.21 -4.76 0.02 0 0 Z M0.4 16.15 C-0.89 20.03 -0.78 23.74 -0.8 27.8 C-0.81 28.65 -0.81 29.49 -0.82 30.37 C-0.83 32.17 -0.83 33.96 -0.84 35.76 C-0.85 38.5 -0.88 41.25 -0.91 43.99 C-0.92 45.74 -0.92 47.49 -0.93 49.23 C-0.94 50.05 -0.95 50.87 -0.96 51.71 C-0.95 56.35 -0.62 59.4 2.4 63.15 C5.64 65.31 6.54 65.4 10.29 65.42 C11.29 65.43 12.3 65.44 13.34 65.45 C14.99 65.45 14.99 65.45 16.68 65.45 C18.42 65.47 18.42 65.47 20.2 65.48 C24.06 65.5 27.91 65.51 31.77 65.52 C33.77 65.52 35.77 65.53 37.77 65.54 C44.05 65.56 50.34 65.57 56.62 65.57 C63.11 65.58 69.59 65.61 76.07 65.65 C81.64 65.68 87.2 65.7 92.77 65.7 C96.09 65.7 99.42 65.71 102.74 65.74 C106.45 65.76 110.16 65.76 113.87 65.75 C114.97 65.76 116.07 65.78 117.2 65.79 C123.3 65.74 123.3 65.74 128.58 62.88 C130.38 60.18 131.03 58.98 131.03 55.8 C131.05 54.98 131.06 54.15 131.07 53.31 C131.06 52.43 131.04 51.55 131.03 50.65 C131.03 49.28 131.03 49.28 131.04 47.88 C131.04 45.95 131.02 44.03 131 42.1 C130.96 39.16 130.98 36.22 131 33.27 C130.99 31.4 130.98 29.52 130.97 27.65 C130.97 26.77 130.98 25.89 130.98 24.99 C130.91 20.9 130.72 18.68 128.55 15.12 C125.37 12.21 122.78 12.02 118.64 12 C117.66 11.99 116.68 11.99 115.67 11.98 C114.6 11.98 113.52 11.97 112.42 11.97 C111.28 11.96 110.15 11.96 108.99 11.95 C105.23 11.93 101.48 11.92 97.73 11.91 C96.45 11.9 95.17 11.9 93.85 11.9 C87.77 11.88 81.69 11.86 75.61 11.85 C68.6 11.85 61.6 11.82 54.59 11.78 C48.51 11.74 42.44 11.73 36.36 11.73 C33.78 11.72 31.2 11.71 28.61 11.69 C25 11.67 21.39 11.67 17.78 11.68 C16.17 11.66 16.17 11.66 14.54 11.64 C8.56 11.68 4.89 12.03 0.4 16.15 Z M449.4 15.15 C448.26 17.42 448.26 18.73 448.23 21.26 C448.21 22.11 448.2 22.95 448.19 23.83 C448.18 24.74 448.17 25.66 448.16 26.61 C448.16 27.55 448.15 28.49 448.14 29.46 C448.13 31.46 448.11 33.45 448.11 35.45 C448.09 38.5 448.05 41.56 448 44.61 C447.99 46.55 447.98 48.48 447.98 50.42 C447.96 51.33 447.94 52.25 447.92 53.19 C447.89 58.31 447.89 58.31 450.3 62.69 C453.5 64.91 455.27 65.28 459.13 65.29 C460.12 65.3 461.12 65.31 462.15 65.32 C463.25 65.32 464.34 65.32 465.47 65.32 C466.63 65.33 467.78 65.34 468.97 65.34 C472.8 65.36 476.62 65.38 480.45 65.39 C481.76 65.39 483.06 65.39 484.41 65.4 C490.6 65.42 496.79 65.43 502.98 65.44 C510.13 65.45 517.28 65.48 524.42 65.52 C529.95 65.55 535.47 65.56 541 65.56 C544.3 65.57 547.6 65.58 550.9 65.6 C554.58 65.62 558.26 65.62 561.94 65.62 C563.58 65.64 563.58 65.64 565.25 65.66 C569.72 65.63 572.61 65.58 576.58 63.4 C578.63 60.87 579.03 59.82 579.02 56.61 C579.03 55.72 579.04 54.83 579.05 53.91 C579.03 52.96 579.01 52 579 51.02 C579 50.03 579 49.05 579 48.03 C578.99 45.95 578.97 43.87 578.94 41.78 C578.9 38.59 578.9 35.4 578.91 32.21 C578.9 30.19 578.89 28.17 578.87 26.14 C578.87 25.19 578.87 24.23 578.87 23.25 C578.85 22.36 578.84 21.47 578.82 20.56 C578.81 19.38 578.81 19.38 578.8 18.19 C578.3 15.61 577.46 14.74 575.4 13.15 C572.49 12.18 570.63 12.02 567.6 12.01 C566.61 12 565.62 12 564.6 11.99 C563.51 11.99 562.43 11.99 561.31 11.99 C560.17 11.98 559.02 11.98 557.84 11.97 C554.05 11.96 550.26 11.95 546.47 11.94 C543.84 11.94 541.21 11.93 538.58 11.93 C533.77 11.92 528.96 11.91 524.15 11.91 C517.07 11.9 510 11.89 502.92 11.86 C496.78 11.83 490.65 11.83 484.52 11.82 C481.91 11.82 479.3 11.81 476.69 11.8 C473.05 11.78 469.4 11.78 465.75 11.79 C464.67 11.78 463.59 11.77 462.48 11.76 C455.42 11.72 455.42 11.72 449.4 15.15 Z M-165.61 145.26 C-171.49 152.4 -174.6 159.83 -174.6 169.15 C-173.74 177.78 -170.71 185.87 -164.6 192.15 C-154.69 199.84 -146.22 202.43 -133.6 201.15 C-123.53 198.61 -115.99 192.96 -110.6 184.15 C-106.15 175.38 -105.81 166.49 -108.6 157.15 C-112.37 146.87 -118.99 140.92 -128.73 136.28 C-141.87 131.1 -156.02 135.2 -165.61 145.26 Z M225.4 281.15 C224.27 283.41 224.25 284.72 224.21 287.24 C224.19 288.09 224.18 288.93 224.16 289.8 C224.12 293.67 224.08 297.53 224.05 301.39 C224.04 303.43 224.01 305.47 223.97 307.51 C223.92 310.45 223.89 313.38 223.88 316.32 C223.86 317.23 223.83 318.14 223.81 319.08 C223.81 319.93 223.82 320.78 223.82 321.66 C223.81 322.41 223.8 323.16 223.79 323.93 C224.81 327.63 226.27 328.92 229.4 331.15 C233.23 331.89 237.01 331.83 240.91 331.79 C242.07 331.8 243.23 331.81 244.43 331.82 C248.28 331.84 252.12 331.83 255.96 331.81 C258.64 331.81 261.31 331.82 263.98 331.83 C269.58 331.83 275.18 331.82 280.77 331.8 C287.24 331.77 293.71 331.78 300.18 331.81 C305.73 331.83 311.29 331.83 316.85 331.82 C320.17 331.81 323.49 331.81 326.8 331.83 C330.5 331.84 334.2 331.82 337.9 331.79 C338.99 331.8 340.09 331.81 341.22 331.82 C347.31 331.74 347.31 331.74 352.58 328.88 C354.4 326.14 355.03 324.92 355.03 321.7 C355.05 320.85 355.06 320 355.07 319.13 C355.06 318.23 355.04 317.32 355.03 316.39 C355.03 314.99 355.03 314.99 355.04 313.55 C355.04 311.57 355.02 309.6 355 307.62 C354.96 304.59 354.98 301.57 355 298.54 C354.99 296.62 354.98 294.69 354.97 292.77 C354.97 291.86 354.98 290.96 354.98 290.03 C354.93 284.95 354.93 284.95 352.49 280.61 C349.31 278.38 347.56 278.02 343.72 278.01 C342.23 278 342.23 278 340.72 277.99 C339.63 277.99 338.54 277.99 337.42 277.99 C336.28 277.98 335.14 277.98 333.96 277.97 C330.16 277.96 326.37 277.95 322.57 277.94 C319.94 277.94 317.31 277.93 314.68 277.93 C309.86 277.92 305.05 277.91 300.23 277.91 C293.14 277.9 286.06 277.89 278.97 277.86 C272.83 277.83 266.69 277.83 260.56 277.82 C257.95 277.82 255.33 277.81 252.72 277.8 C249.07 277.78 245.42 277.78 241.77 277.79 C240.15 277.78 240.15 277.78 238.49 277.76 C231.42 277.72 231.42 277.72 225.4 281.15 Z " fill="#000000" transform="translate(212.5977325439453,8.852828979492188)"/>
</svg>
