<svg xmlns="http://www.w3.org/2000/svg" xmlns:xlink="http://www.w3.org/1999/xlink" version="1.1" class="marks" width="594" height="482" viewBox="0 0 594 482"><g fill="none" stroke-miterlimit="10" transform="translate(56,36)"><g class="mark-group role-frame root" role="graphics-object" aria-roledescription="group mark container"><g transform="translate(0,0)"><path class="background" aria-hidden="true" d="M0.5,0.5h500v400h-500Z" stroke="#ddd"/><g><g class="mark-group role-axis" role="graphics-symbol" aria-roledescription="axis" aria-label="X-axis titled 'Year' for a linear scale with values from 2006 to 2024"><g transform="translate(0.5,400.5)"><path class="background" aria-hidden="true" d="M0,0h0v0h0Z" pointer-events="none"/><g><g class="mark-rule role-axis-tick" pointer-events="none"><line transform="translate(0,0)" x2="0" y2="5" stroke="#888" stroke-width="1" opacity="1"/><line transform="translate(56,0)" x2="0" y2="5" stroke="#888" stroke-width="1" opacity="1"/><line transform="translate(111,0)" x2="0" y2="5" stroke="#888" stroke-width="1" opacity="1"/><line transform="translate(167,0)" x2="0" y2="5" stroke="#888" stroke-width="1" opacity="1"/><line transform="translate(222,0)" x2="0" y2="5" stroke="#888" stroke-width="1" opacity="1"/><line transform="translate(278,0)" x2="0" y2="5" stroke="#888" stroke-width="1" opacity="1"/><line transform="translate(333,0)" x2="0" y2="5" stroke="#888" stroke-width="1" opacity="1"/><line transform="translate(389,0)" x2="0" y2="5" stroke="#888" stroke-width="1" opacity="1"/><line transform="translate(444,0)" x2="0" y2="5" stroke="#888" stroke-width="1" opacity="1"/><line transform="translate(500,0)" x2="0" y2="5" stroke="#888" stroke-width="1" opacity="1"/></g><g class="mark-text role-axis-label" pointer-events="none"><text text-anchor="start" transform="translate(0,18)" font-family="sans-serif" font-size="14px" fill="#000" opacity="1">2006</text><text text-anchor="middle" transform="translate(55.55555555555555,18)" font-family="sans-serif" font-size="14px" fill="#000" opacity="1">2008</text><text text-anchor="middle" transform="translate(111.1111111111111,18)" font-family="sans-serif" font-size="14px" fill="#000" opacity="1">2010</text><text text-anchor="middle" transform="translate(166.66666666666666,18)" font-family="sans-serif" font-size="14px" fill="#000" opacity="1">2012</text><text text-anchor="middle" transform="translate(222.2222222222222,18)" font-family="sans-serif" font-size="14px" fill="#000" opacity="1">2014</text><text text-anchor="middle" transform="translate(277.77777777777777,18)" font-family="sans-serif" font-size="14px" fill="#000" opacity="1">2016</text><text text-anchor="middle" transform="translate(333.3333333333333,18)" font-family="sans-serif" font-size="14px" fill="#000" opacity="1">2018</text><text text-anchor="middle" transform="translate(388.8888888888889,18)" font-family="sans-serif" font-size="14px" fill="#000" opacity="1">2020</text><text text-anchor="middle" transform="translate(444.4444444444444,18)" font-family="sans-serif" font-size="14px" fill="#000" opacity="1">2022</text><text text-anchor="end" transform="translate(500,18)" font-family="sans-serif" font-size="14px" fill="#000" opacity="1">2024</text></g><g class="mark-rule role-axis-domain" pointer-events="none"><line transform="translate(0,0)" x2="500" y2="0" stroke="#888" stroke-width="1" opacity="1"/></g><g class="mark-text role-axis-title" pointer-events="none"><text text-anchor="middle" transform="translate(250,38)" font-family="sans-serif" font-size="16px" font-weight="bold" fill="#000" opacity="1">Year</text></g></g><path class="foreground" aria-hidden="true" d="" pointer-events="none" display="none"/></g></g><g class="mark-group role-axis" role="graphics-symbol" aria-roledescription="axis" aria-label="Y-axis titled 'Total granted loans (thousands)' for a linear scale with values from 0 to 100"><g transform="translate(0.5,0.5)"><path class="background" aria-hidden="true" d="M0,0h0v0h0Z" pointer-events="none"/><g><g class="mark-rule role-axis-tick" pointer-events="none"><line transform="translate(0,400)" x2="-5" y2="0" stroke="#888" stroke-width="1" opacity="1"/><line transform="translate(0,360)" x2="-5" y2="0" stroke="#888" stroke-width="1" opacity="1"/><line transform="translate(0,320)" x2="-5" y2="0" stroke="#888" stroke-width="1" opacity="1"/><line transform="translate(0,280)" x2="-5" y2="0" stroke="#888" stroke-width="1" opacity="1"/><line transform="translate(0,240)" x2="-5" y2="0" stroke="#888" stroke-width="1" opacity="1"/><line transform="translate(0,200)" x2="-5" y2="0" stroke="#888" stroke-width="1" opacity="1"/><line transform="translate(0,160)" x2="-5" y2="0" stroke="#888" stroke-width="1" opacity="1"/><line transform="translate(0,120)" x2="-5" y2="0" stroke="#888" stroke-width="1" opacity="1"/><line transform="translate(0,80)" x2="-5" y2="0" stroke="#888" stroke-width="1" opacity="1"/><line transform="translate(0,40)" x2="-5" y2="0" stroke="#888" stroke-width="1" opacity="1"/><line transform="translate(0,0)" x2="-5" y2="0" stroke="#888" stroke-width="1" opacity="1"/></g><g class="mark-text role-axis-label" pointer-events="none"><text text-anchor="end" transform="translate(-7,404)" font-family="sans-serif" font-size="14px" fill="#000" opacity="1">0</text><text text-anchor="end" transform="translate(-7,364)" font-family="sans-serif" font-size="14px" fill="#000" opacity="1">10</text><text text-anchor="end" transform="translate(-7,324)" font-family="sans-serif" font-size="14px" fill="#000" opacity="1">20</text><text text-anchor="end" transform="translate(-7,284)" font-family="sans-serif" font-size="14px" fill="#000" opacity="1">30</text><text text-anchor="end" transform="translate(-7,244)" font-family="sans-serif" font-size="14px" fill="#000" opacity="1">40</text><text text-anchor="end" transform="translate(-7,204)" font-family="sans-serif" font-size="14px" fill="#000" opacity="1">50</text><text text-anchor="end" transform="translate(-7,164)" font-family="sans-serif" font-size="14px" fill="#000" opacity="1">60</text><text text-anchor="end" transform="translate(-7,124.00000000000001)" font-family="sans-serif" font-size="14px" fill="#000" opacity="1">70</text><text text-anchor="end" transform="translate(-7,83.99999999999999)" font-family="sans-serif" font-size="14px" fill="#000" opacity="1">80</text><text text-anchor="end" transform="translate(-7,43.99999999999999)" font-family="sans-serif" font-size="14px" fill="#000" opacity="1">90</text><text text-anchor="end" transform="translate(-7,4)" font-family="sans-serif" font-size="14px" fill="#000" opacity="1">100</text></g><g class="mark-rule role-axis-domain" pointer-events="none"><line transform="translate(0,400)" x2="0" y2="-400" stroke="#888" stroke-width="1" opacity="1"/></g><g class="mark-text role-axis-title" pointer-events="none"><text text-anchor="middle" transform="translate(-34.3583984375,200) rotate(-90) translate(0,-3)" font-family="sans-serif" font-size="16px" font-weight="bold" fill="#000" opacity="1">Total granted loans (thousands)</text></g></g><path class="foreground" aria-hidden="true" d="" pointer-events="none" display="none"/></g></g><g class="mark-group role-scope pathgroup" role="graphics-object" aria-roledescription="group mark container"><g transform="translate(0,0)"><path class="background" aria-hidden="true" d="M0,0h500v400h-500Z"/><g><g class="mark-area role-mark marks" role="graphics-object" aria-roledescription="area mark container"><path aria-label="Year: 2006; Total granted loans (thousands): 4.962; quintil: quintil 5" role="graphics-symbol" aria-roledescription="area mark" d="M0,380.152L27.778,400L55.556,400L83.333,400L111.111,400L138.889,386.068L166.667,378.536L194.444,367.844L222.222,348.672L250,348.776L277.778,336.82L305.556,328.464L333.333,311.684L361.111,296.948L388.889,310.86L416.667,336.088L444.444,333.952L472.222,280.592L500,323.292L500,400L472.222,400L444.444,400L416.667,400L388.889,400L361.111,400L333.333,400L305.556,400L277.778,400L250,400L222.222,400L194.444,400L166.667,400L138.889,400L111.111,400L83.333,400L55.556,400L27.778,400L0,400Z" fill="yellow"/></g></g><path class="foreground" aria-hidden="true" d="" display="none"/></g><g transform="translate(0,0)"><path class="background" aria-hidden="true" d="M0,0h500v400h-500Z"/><g><g class="mark-area role-mark marks" role="graphics-object" aria-roledescription="area mark container"><path aria-label="Year: 2006; Total granted loans (thousands): 7.269; quintil: quintil 1 y 2" role="graphics-symbol" aria-roledescription="area mark" d="M0,314.948L27.778,259.86L55.556,229.1L83.333,120.392L111.111,35.12L138.889,24.3L166.667,42.528L194.444,31.464L222.222,47.016L250,20.972L277.778,40.856L305.556,136.288L333.333,146.556L361.111,145.216L388.889,150.732L416.667,211.036L444.444,210.308L472.222,155.664L500,167.748L500,247.308L472.222,215.144L444.444,270.42L416.667,277.412L388.889,228.968L361.111,220.324L333.333,220.708L305.556,227.088L277.778,193.268L250,217.396L222.222,222.6L194.444,227.568L166.667,252.808L138.889,262.044L111.111,285.028L83.333,303.504L55.556,338.82L27.778,350.084L0,344.024Z" fill="red"/></g></g><path class="foreground" aria-hidden="true" d="" display="none"/></g><g transform="translate(0,0)"><path class="background" aria-hidden="true" d="M0,0h500v400h-500Z"/><g><g class="mark-area role-mark marks" role="graphics-object" aria-roledescription="area mark container"><path aria-label="Year: 2006; Total granted loans (thousands): 5.524; quintil: quintil 4" role="graphics-symbol" aria-roledescription="area mark" d="M0,358.056L27.778,381.888L55.556,372.568L83.333,352.408L111.111,347.112L138.889,329.52L166.667,317.796L194.444,297.944L222.222,284.528L250,281.944L277.778,264.416L305.556,277.784L333.333,261.532L361.111,254.812L388.889,266.904L416.667,303.8L444.444,296.468L472.222,241.568L500,281.324L500,323.292L472.222,280.592L444.444,333.952L416.667,336.088L388.889,310.86L361.111,296.948L333.333,311.684L305.556,328.464L277.778,336.82L250,348.776L222.222,348.672L194.444,367.844L166.667,378.536L138.889,386.068L111.111,400L83.333,400L55.556,400L27.778,400L0,380.152Z" fill="blue"/></g></g><path class="foreground" aria-hidden="true" d="" display="none"/></g><g transform="translate(0,0)"><path class="background" aria-hidden="true" d="M0,0h500v400h-500Z"/><g><g class="mark-area role-mark marks" role="graphics-object" aria-roledescription="area mark container"><path aria-label="Year: 2006; Total granted loans (thousands): 3.508; quintil: quintil 3" role="graphics-symbol" aria-roledescription="area mark" d="M0,344.024L27.778,350.084L55.556,338.82L83.333,303.504L111.111,285.028L138.889,262.044L166.667,252.808L194.444,227.568L222.222,222.6L250,217.396L277.778,193.268L305.556,227.088L333.333,220.708L361.111,220.324L388.889,228.968L416.667,277.412L444.444,270.42L472.222,215.144L500,247.308L500,281.324L472.222,241.568L444.444,296.468L416.667,303.8L388.889,266.904L361.111,254.812L333.333,261.532L305.556,277.784L277.778,264.416L250,281.944L222.222,284.528L194.444,297.944L166.667,317.796L138.889,329.52L111.111,347.112L83.333,352.408L55.556,372.568L27.778,381.888L0,358.056Z" fill="blue"/></g></g><path class="foreground" aria-hidden="true" d="" display="none"/></g></g><g class="mark-group role-legend" role="graphics-symbol" aria-roledescription="legend" aria-label="Symbol legend titled 'Quintile' for fill color with 4 values: quintil 1 y 2, quintil 3, quintil 4, quintil 5"><g transform="translate(393,18)"><path class="background" aria-hidden="true" d="M0,0h89v78h-89Z" pointer-events="none"/><g><g class="mark-group role-legend-entry"><g transform="translate(0,16)"><path class="background" aria-hidden="true" d="M0,0h0v0h0Z" pointer-events="none"/><g><g class="mark-group role-scope" role="graphics-object" aria-roledescription="group mark container"><g transform="translate(0,0)"><path class="background" aria-hidden="true" d="M0,0h88.8203125v14h-88.8203125Z" pointer-events="none" opacity="1"/><g><g class="mark-symbol role-legend-symbol" pointer-events="none"><path transform="translate(7,7)" d="M5,0A5,5,0,1,1,-5,0A5,5,0,1,1,5,0" fill="red" stroke-width="1.5" opacity="1"/></g><g class="mark-text role-legend-label" pointer-events="none"><text text-anchor="start" transform="translate(18,11)" font-family="sans-serif" font-size="14px" fill="#000" opacity="1">quintil 1 y 2</text></g></g><path class="foreground" aria-hidden="true" d="" pointer-events="none" display="none"/></g><g transform="translate(0,16)"><path class="background" aria-hidden="true" d="M0,0h88.8203125v14h-88.8203125Z" pointer-events="none" opacity="1"/><g><g class="mark-symbol role-legend-symbol" pointer-events="none"><path transform="translate(7,7)" d="M5,0A5,5,0,1,1,-5,0A5,5,0,1,1,5,0" fill="blue" stroke-width="1.5" opacity="1"/></g><g class="mark-text role-legend-label" pointer-events="none"><text text-anchor="start" transform="translate(18,11)" font-family="sans-serif" font-size="14px" fill="#000" opacity="1">quintil 3</text></g></g><path class="foreground" aria-hidden="true" d="" pointer-events="none" display="none"/></g><g transform="translate(0,32)"><path class="background" aria-hidden="true" d="M0,0h88.8203125v14h-88.8203125Z" pointer-events="none" opacity="1"/><g><g class="mark-symbol role-legend-symbol" pointer-events="none"><path transform="translate(7,7)" d="M5,0A5,5,0,1,1,-5,0A5,5,0,1,1,5,0" fill="blue" stroke-width="1.5" opacity="1"/></g><g class="mark-text role-legend-label" pointer-events="none"><text text-anchor="start" transform="translate(18,11)" font-family="sans-serif" font-size="14px" fill="#000" opacity="1">quintil 4</text></g></g><path class="foreground" aria-hidden="true" d="" pointer-events="none" display="none"/></g><g transform="translate(0,48)"><path class="background" aria-hidden="true" d="M0,0h88.8203125v14h-88.8203125Z" pointer-events="none" opacity="1"/><g><g class="mark-symbol role-legend-symbol" pointer-events="none"><path transform="translate(7,7)" d="M5,0A5,5,0,1,1,-5,0A5,5,0,1,1,5,0" fill="yellow" stroke-width="1.5" opacity="1"/></g><g class="mark-text role-legend-label" pointer-events="none"><text text-anchor="start" transform="translate(18,11)" font-family="sans-serif" font-size="14px" fill="#000" opacity="1">quintil 5</text></g></g><path class="foreground" aria-hidden="true" d="" pointer-events="none" display="none"/></g></g></g><path class="foreground" aria-hidden="true" d="" pointer-events="none" display="none"/></g></g><g class="mark-text role-legend-title" pointer-events="none"><text text-anchor="start" transform="translate(0,9)" font-family="sans-serif" font-size="11px" font-weight="bold" fill="#000" opacity="1">Quintile</text></g></g><path class="foreground" aria-hidden="true" d="" pointer-events="none" display="none"/></g></g><g class="mark-group role-title"><g transform="translate(250,-31)"><path class="background" aria-hidden="true" d="M0,0h0v0h0Z" pointer-events="none"/><g><g class="mark-text role-title-text" role="graphics-symbol" aria-roledescription="title" aria-label="Title text 'Granted State-backed loans by income quintile (thousands)'" pointer-events="none"><text text-anchor="middle" transform="translate(0,16)" font-family="sans-serif" font-size="20px" font-weight="bold" fill="#000" opacity="1">Granted State-backed loans by income quintile (thousands)</text></g></g><path class="foreground" aria-hidden="true" d="" pointer-events="none" display="none"/></g></g></g><path class="foreground" aria-hidden="true" d="" display="none"/></g></g></g></svg>