<svg xmlns="http://www.w3.org/2000/svg" xmlns:xlink="http://www.w3.org/1999/xlink" version="1.1" class="marks" width="704" height="482" viewBox="0 0 704 482"><g fill="none" stroke-miterlimit="10" transform="translate(102,36)"><g class="mark-group role-frame root" role="graphics-object" aria-roledescription="group mark container"><g transform="translate(0,0)"><path class="background" aria-hidden="true" d="M0.5,0.5h500v400h-500Z" stroke="#ddd"/><g><g class="mark-group role-axis" role="graphics-symbol" aria-roledescription="axis" aria-label="X-axis titled 'Year' for a discrete scale with 19 values: 2007, 2008, 2009, 2010, 2011, ending with 2025"><g transform="translate(0.5,400.5)"><path class="background" aria-hidden="true" d="M0,0h0v0h0Z" pointer-events="none"/><g><g class="mark-rule role-axis-tick" pointer-events="none"><line transform="translate(13,0)" x2="0" y2="5" stroke="#888" stroke-width="1" opacity="1"/><line transform="translate(66,0)" x2="0" y2="5" stroke="#888" stroke-width="1" opacity="1"/><line transform="translate(118,0)" x2="0" y2="5" stroke="#888" stroke-width="1" opacity="1"/><line transform="translate(171,0)" x2="0" y2="5" stroke="#888" stroke-width="1" opacity="1"/><line transform="translate(224,0)" x2="0" y2="5" stroke="#888" stroke-width="1" opacity="1"/><line transform="translate(276,0)" x2="0" y2="5" stroke="#888" stroke-width="1" opacity="1"/><line transform="translate(329,0)" x2="0" y2="5" stroke="#888" stroke-width="1" opacity="1"/><line transform="translate(382,0)" x2="0" y2="5" stroke="#888" stroke-width="1" opacity="1"/><line transform="translate(434,0)" x2="0" y2="5" stroke="#888" stroke-width="1" opacity="1"/><line transform="translate(487,0)" x2="0" y2="5" stroke="#888" stroke-width="1" opacity="1"/></g><g class="mark-text role-axis-label" pointer-events="none"><text text-anchor="middle" transform="translate(13.15789473684211,18)" font-family="sans-serif" font-size="14px" fill="#000" opacity="1">2007</text><text text-anchor="middle" transform="translate(65.78947368421052,18)" font-family="sans-serif" font-size="14px" fill="#000" opacity="1">2009</text><text text-anchor="middle" transform="translate(118.42105263157895,18)" font-family="sans-serif" font-size="14px" fill="#000" opacity="1">2011</text><text text-anchor="middle" transform="translate(171.05263157894737,18)" font-family="sans-serif" font-size="14px" fill="#000" opacity="1">2013</text><text text-anchor="middle" transform="translate(223.68421052631578,18)" font-family="sans-serif" font-size="14px" fill="#000" opacity="1">2015</text><text text-anchor="middle" transform="translate(276.31578947368416,18)" font-family="sans-serif" font-size="14px" fill="#000" opacity="1">2017</text><text text-anchor="middle" transform="translate(328.9473684210526,18)" font-family="sans-serif" font-size="14px" fill="#000" opacity="1">2019</text><text text-anchor="middle" transform="translate(381.57894736842104,18)" font-family="sans-serif" font-size="14px" fill="#000" opacity="1">2021</text><text text-anchor="middle" transform="translate(434.2105263157895,18)" font-family="sans-serif" font-size="14px" fill="#000" opacity="1">2023</text><text text-anchor="middle" transform="translate(486.8421052631579,18)" font-family="sans-serif" font-size="14px" fill="#000" opacity="1">2025</text></g><g class="mark-rule role-axis-domain" pointer-events="none"><line transform="translate(0,0)" x2="500" y2="0" stroke="#888" stroke-width="1" opacity="1"/></g><g class="mark-text role-axis-title" pointer-events="none"><text text-anchor="middle" transform="translate(250,38)" font-family="sans-serif" font-size="16px" font-weight="bold" fill="#000" opacity="1">Year</text></g></g><path class="foreground" aria-hidden="true" d="" pointer-events="none" display="none"/></g></g><g class="mark-group role-axis" role="graphics-symbol" aria-roledescription="axis" aria-label="Y-axis titled 'Total enrolled (thousands)' for a linear scale with values from 0 to 800"><g transform="translate(0.5,0.5)"><path class="background" aria-hidden="true" d="M0,0h0v0h0Z" pointer-events="none"/><g><g class="mark-rule role-axis-tick" pointer-events="none"><line transform="translate(0,400)" x2="-5" y2="0" stroke="#888" stroke-width="1" opacity="1"/><line transform="translate(0,350)" x2="-5" y2="0" stroke="#888" stroke-width="1" opacity="1"/><line transform="translate(0,300)" x2="-5" y2="0" stroke="#888" stroke-width="1" opacity="1"/><line transform="translate(0,250)" x2="-5" y2="0" stroke="#888" stroke-width="1" opacity="1"/><line transform="translate(0,200)" x2="-5" y2="0" stroke="#888" stroke-width="1" opacity="1"/><line transform="translate(0,150)" x2="-5" y2="0" stroke="#888" stroke-width="1" opacity="1"/><line transform="translate(0,100)" x2="-5" y2="0" stroke="#888" stroke-width="1" opacity="1"/><line transform="translate(0,50)" x2="-5" y2="0" stroke="#888" stroke-width="1" opacity="1"/><line transform="translate(0,0)" x2="-5" y2="0" stroke="#888" stroke-width="1" opacity="1"/></g><g class="mark-text role-axis-label" pointer-events="none"><text text-anchor="end" transform="translate(-7,404)" font-family="sans-serif" font-size="14px" fill="#000" opacity="1">0</text><text text-anchor="end" transform="translate(-7,354)" font-family="sans-serif" font-size="14px" fill="#000" opacity="1">100</text><text text-anchor="end" transform="translate(-7,304)" font-family="sans-serif" font-size="14px" fill="#000" opacity="1">200</text><text text-anchor="end" transform="translate(-7,254)" font-family="sans-serif" font-size="14px" fill="#000" opacity="1">300</text><text text-anchor="end" transform="translate(-7,204)" font-family="sans-serif" font-size="14px" fill="#000" opacity="1">400</text><text text-anchor="end" transform="translate(-7,154)" font-family="sans-serif" font-size="14px" fill="#000" opacity="1">500</text><text text-anchor="end" transform="translate(-7,104)" font-family="sans-serif" font-size="14px" fill="#000" opacity="1">600</text><text text-anchor="end" transform="translate(-7,54)" font-family="sans-serif" font-size="14px" fill="#000" opacity="1">700</text><text text-anchor="end" transform="translate(-7,4)" font-family="sans-serif" font-size="14px" fill="#000" opacity="1">800</text></g><g class="mark-rule role-axis-domain" pointer-events="none"><line transform="translate(0,400)" x2="0" y2="-400" stroke="#888" stroke-width="1" opacity="1"/></g><g class="mark-text role-axis-title" pointer-events="none"><text text-anchor="middle" transform="translate(-34.3583984375,200) rotate(-90) translate(0,-3)" font-family="sans-serif" font-size="16px" font-weight="bold" fill="#000" opacity="1">Total enrolled (thousands)</text></g></g><path class="foreground" aria-hidden="true" d="" pointer-events="none" display="none"/></g></g><g class="mark-group role-scope pathgroup" role="graphics-object" aria-roledescription="group mark container"><g transform="translate(0,0)"><path class="background" aria-hidden="true" d="M0,0h500v400h-500Z"/><g><g class="mark-line role-mark marks" role="graphics-object" aria-roledescription="line mark container"><path aria-label="año: 2007; Sum of total matrícula: 391.376; enrolled type: Men" role="graphics-symbol" aria-roledescription="line mark" d="M13.158,204.312L39.474,195.08L65.789,180.568L92.105,158.806L118.421,141.468L144.737,129.947L171.053,115.325L197.368,108.37L223.684,103.651L250,102.207L276.316,104.409L302.632,103.38L328.947,102.182L355.263,115.543L381.579,103.226L407.895,98.845L434.211,88.219L460.526,76.357L486.842,60.005" stroke="#779fa1" stroke-width="2"/></g></g><path class="foreground" aria-hidden="true" d="" display="none"/></g><g transform="translate(0,0)"><path class="background" aria-hidden="true" d="M0,0h500v400h-500Z"/><g><g class="mark-line role-mark marks" role="graphics-object" aria-roledescription="line mark container"><path aria-label="año: 2007; Sum of total matrícula: 385.462; enrolled type: Women" role="graphics-symbol" aria-roledescription="line mark" d="M13.158,207.269L39.474,195.022L65.789,173.573L92.105,148.385L118.421,123.983L144.737,106.593L171.053,92.49L197.368,84.065L223.684,79.827L250,74.205L276.316,71.445L302.632,65.453L328.947,63.577L355.263,74.008L381.579,49.423L407.895,49.082L434.211,41.058L460.526,30.601L486.842,12.188" stroke="#88498f" stroke-width="2"/></g></g><path class="foreground" aria-hidden="true" d="" display="none"/></g></g><g class="mark-group role-legend" role="graphics-symbol" aria-roledescription="legend" aria-label="Symbol legend titled 'Gender' for stroke color with 2 values: Women, Men"><g transform="translate(416,336)"><path class="background" aria-hidden="true" d="M0,0h66v46h-66Z" pointer-events="none"/><g><g class="mark-group role-legend-entry"><g transform="translate(0,16)"><path class="background" aria-hidden="true" d="M0,0h0v0h0Z" pointer-events="none"/><g><g class="mark-group role-scope" role="graphics-object" aria-roledescription="group mark container"><g transform="translate(0,0)"><path class="background" aria-hidden="true" d="M0,0h65.9814453125v14h-65.9814453125Z" pointer-events="none" opacity="1"/><g><g class="mark-symbol role-legend-symbol" pointer-events="none"><path transform="translate(7,7)" d="M-5,0L5,0" stroke="#88498f" stroke-width="1.5" opacity="1"/></g><g class="mark-text role-legend-label" pointer-events="none"><text text-anchor="start" transform="translate(18,11)" font-family="sans-serif" font-size="14px" fill="#000" opacity="1">Women</text></g></g><path class="foreground" aria-hidden="true" d="" pointer-events="none" display="none"/></g><g transform="translate(0,16)"><path class="background" aria-hidden="true" d="M0,0h65.9814453125v14h-65.9814453125Z" pointer-events="none" opacity="1"/><g><g class="mark-symbol role-legend-symbol" pointer-events="none"><path transform="translate(7,7)" d="M-5,0L5,0" stroke="#779fa1" stroke-width="1.5" opacity="1"/></g><g class="mark-text role-legend-label" pointer-events="none"><text text-anchor="start" transform="translate(18,11)" font-family="sans-serif" font-size="14px" fill="#000" opacity="1">Men</text></g></g><path class="foreground" aria-hidden="true" d="" pointer-events="none" display="none"/></g></g></g><path class="foreground" aria-hidden="true" d="" pointer-events="none" display="none"/></g></g><g class="mark-text role-legend-title" pointer-events="none"><text text-anchor="start" transform="translate(0,9)" font-family="sans-serif" font-size="11px" font-weight="bold" fill="#000" opacity="1">Gender</text></g></g><path class="foreground" aria-hidden="true" d="" pointer-events="none" display="none"/></g></g><g class="mark-group role-title"><g transform="translate(250,-31)"><path class="background" aria-hidden="true" d="M0,0h0v0h0Z" pointer-events="none"/><g><g class="mark-text role-title-text" role="graphics-symbol" aria-roledescription="title" aria-label="Title text 'Evolution of enrolled Men and Women in universities' Degrees 2007-2025'" pointer-events="none"><text text-anchor="middle" transform="translate(0,16)" font-family="sans-serif" font-size="20px" font-weight="bold" fill="#000" opacity="1">Evolution of enrolled Men and Women in universities' Degrees 2007-2025</text></g></g><path class="foreground" aria-hidden="true" d="" pointer-events="none" display="none"/></g></g></g><path class="foreground" aria-hidden="true" d="" display="none"/></g></g></g></svg>