<svg xmlns="http://www.w3.org/2000/svg" xmlns:xlink="http://www.w3.org/1999/xlink" version="1.1" class="marks" width="557" height="482" viewBox="0 0 557 482"><g fill="none" stroke-miterlimit="10" transform="translate(52,36)"><g class="mark-group role-frame root" role="graphics-object" aria-roledescription="group mark container"><g transform="translate(0,0)"><path class="background" aria-hidden="true" d="M0.5,0.5h500v400h-500Z" stroke="#ddd"/><g><g class="mark-group role-axis" role="graphics-symbol" aria-roledescription="axis" aria-label="X-axis titled 'Year' for a discrete scale with 14 values: 2007, 2008, 2009, 2010, 2011, ending with 2021"><g transform="translate(0.5,400.5)"><path class="background" aria-hidden="true" d="M0,0h0v0h0Z" pointer-events="none"/><g><g class="mark-rule role-axis-tick" pointer-events="none"><line transform="translate(18,0)" x2="0" y2="5" stroke="#888" stroke-width="1" opacity="1"/><line transform="translate(54,0)" x2="0" y2="5" stroke="#888" stroke-width="1" opacity="1"/><line transform="translate(89,0)" x2="0" y2="5" stroke="#888" stroke-width="1" opacity="1"/><line transform="translate(125,0)" x2="0" y2="5" stroke="#888" stroke-width="1" opacity="1"/><line transform="translate(161,0)" x2="0" y2="5" stroke="#888" stroke-width="1" opacity="1"/><line transform="translate(196,0)" x2="0" y2="5" stroke="#888" stroke-width="1" opacity="1"/><line transform="translate(232,0)" x2="0" y2="5" stroke="#888" stroke-width="1" opacity="1"/><line transform="translate(268,0)" x2="0" y2="5" stroke="#888" stroke-width="1" opacity="1"/><line transform="translate(304,0)" x2="0" y2="5" stroke="#888" stroke-width="1" opacity="1"/><line transform="translate(339,0)" x2="0" y2="5" stroke="#888" stroke-width="1" opacity="1"/><line transform="translate(375,0)" x2="0" y2="5" stroke="#888" stroke-width="1" opacity="1"/><line transform="translate(411,0)" x2="0" y2="5" stroke="#888" stroke-width="1" opacity="1"/><line transform="translate(446,0)" x2="0" y2="5" stroke="#888" stroke-width="1" opacity="1"/><line transform="translate(482,0)" x2="0" y2="5" stroke="#888" stroke-width="1" opacity="1"/></g><g class="mark-text role-axis-label" pointer-events="none"><text text-anchor="middle" transform="translate(17.85714285714286,18)" font-family="sans-serif" font-size="14px" fill="#000" opacity="1">2007</text><text text-anchor="middle" transform="translate(53.57142857142858,18)" font-family="sans-serif" font-size="14px" fill="#000" opacity="1">2008</text><text text-anchor="middle" transform="translate(89.28571428571429,18)" font-family="sans-serif" font-size="14px" fill="#000" opacity="1">2009</text><text text-anchor="middle" transform="translate(125,18)" font-family="sans-serif" font-size="14px" fill="#000" opacity="1">2010</text><text text-anchor="middle" transform="translate(160.71428571428572,18)" font-family="sans-serif" font-size="14px" fill="#000" opacity="1">2011</text><text text-anchor="middle" transform="translate(196.42857142857144,18)" font-family="sans-serif" font-size="14px" fill="#000" opacity="1">2012</text><text text-anchor="middle" transform="translate(232.14285714285714,18)" font-family="sans-serif" font-size="14px" fill="#000" opacity="1">2014</text><text text-anchor="middle" transform="translate(267.8571428571429,18)" font-family="sans-serif" font-size="14px" fill="#000" opacity="1">2015</text><text text-anchor="middle" transform="translate(303.57142857142856,18)" font-family="sans-serif" font-size="14px" fill="#000" opacity="1">2016</text><text text-anchor="middle" transform="translate(339.28571428571433,18)" font-family="sans-serif" font-size="14px" fill="#000" opacity="1">2017</text><text text-anchor="middle" transform="translate(375,18)" font-family="sans-serif" font-size="14px" fill="#000" opacity="1">2018</text><text text-anchor="middle" transform="translate(410.7142857142858,18)" font-family="sans-serif" font-size="14px" fill="#000" opacity="1">2019</text><text text-anchor="middle" transform="translate(446.42857142857144,18)" font-family="sans-serif" font-size="14px" fill="#000" opacity="1">2020</text><text text-anchor="middle" transform="translate(482.1428571428571,18)" font-family="sans-serif" font-size="14px" fill="#000" opacity="1">2021</text></g><g class="mark-rule role-axis-domain" pointer-events="none"><line transform="translate(0,0)" x2="500" y2="0" stroke="#888" stroke-width="1" opacity="1"/></g><g class="mark-text role-axis-title" pointer-events="none"><text text-anchor="middle" transform="translate(250,38)" font-family="sans-serif" font-size="16px" font-weight="bold" fill="#000" opacity="1">Year</text></g></g><path class="foreground" aria-hidden="true" d="" pointer-events="none" display="none"/></g></g><g class="mark-group role-axis" role="graphics-symbol" aria-roledescription="axis" aria-label="Y-axis titled '% of GDP' for a linear scale with values from 0.0 to 1.8"><g transform="translate(0.5,0.5)"><path class="background" aria-hidden="true" d="M0,0h0v0h0Z" pointer-events="none"/><g><g class="mark-rule role-axis-tick" pointer-events="none"><line transform="translate(0,400)" x2="-5" y2="0" stroke="#888" stroke-width="1" opacity="1"/><line transform="translate(0,356)" x2="-5" y2="0" stroke="#888" stroke-width="1" opacity="1"/><line transform="translate(0,311)" x2="-5" y2="0" stroke="#888" stroke-width="1" opacity="1"/><line transform="translate(0,267)" x2="-5" y2="0" stroke="#888" stroke-width="1" opacity="1"/><line transform="translate(0,222)" x2="-5" y2="0" stroke="#888" stroke-width="1" opacity="1"/><line transform="translate(0,178)" x2="-5" y2="0" stroke="#888" stroke-width="1" opacity="1"/><line transform="translate(0,133)" x2="-5" y2="0" stroke="#888" stroke-width="1" opacity="1"/><line transform="translate(0,89)" x2="-5" y2="0" stroke="#888" stroke-width="1" opacity="1"/><line transform="translate(0,44)" x2="-5" y2="0" stroke="#888" stroke-width="1" opacity="1"/><line transform="translate(0,0)" x2="-5" y2="0" stroke="#888" stroke-width="1" opacity="1"/></g><g class="mark-text role-axis-label" pointer-events="none"><text text-anchor="end" transform="translate(-7,404)" font-family="sans-serif" font-size="14px" fill="#000" opacity="1">0.0</text><text text-anchor="end" transform="translate(-7,359.55555555555554)" font-family="sans-serif" font-size="14px" fill="#000" opacity="1">0.2</text><text text-anchor="end" transform="translate(-7,315.11111111111114)" font-family="sans-serif" font-size="14px" fill="#000" opacity="1">0.4</text><text text-anchor="end" transform="translate(-7,270.6666666666667)" font-family="sans-serif" font-size="14px" fill="#000" opacity="1">0.6</text><text text-anchor="end" transform="translate(-7,226.22222222222223)" font-family="sans-serif" font-size="14px" fill="#000" opacity="1">0.8</text><text text-anchor="end" transform="translate(-7,181.77777777777777)" font-family="sans-serif" font-size="14px" fill="#000" opacity="1">1.0</text><text text-anchor="end" transform="translate(-7,137.33333333333334)" font-family="sans-serif" font-size="14px" fill="#000" opacity="1">1.2</text><text text-anchor="end" transform="translate(-7,92.88888888888893)" font-family="sans-serif" font-size="14px" fill="#000" opacity="1">1.4</text><text text-anchor="end" transform="translate(-7,48.44444444444442)" font-family="sans-serif" font-size="14px" fill="#000" opacity="1">1.6</text><text text-anchor="end" transform="translate(-7,4)" font-family="sans-serif" font-size="14px" fill="#000" opacity="1">1.8</text></g><g class="mark-rule role-axis-domain" pointer-events="none"><line transform="translate(0,400)" x2="0" y2="-400" stroke="#888" stroke-width="1" opacity="1"/></g><g class="mark-text role-axis-title" pointer-events="none"><text text-anchor="middle" transform="translate(-30.4619140625,200) rotate(-90) translate(0,-3)" font-family="sans-serif" font-size="16px" font-weight="bold" fill="#000" opacity="1">% of GDP</text></g></g><path class="foreground" aria-hidden="true" d="" pointer-events="none" display="none"/></g></g><g class="mark-group role-scope pathgroup" role="graphics-object" aria-roledescription="group mark container"><g transform="translate(0,0)"><path class="background" aria-hidden="true" d="M0,0h500v400h-500Z"/><g><g class="mark-line role-mark marks" role="graphics-object" aria-roledescription="line mark container"><path aria-label="Year: 2007; % of GDP: 1.14624; Education Level: Primary" role="graphics-symbol" aria-roledescription="line mark" d="M17.857,145.28L53.571,93.244L89.286,55.962L125,104.54L160.714,104.384L196.429,76.347L232.143,138.131L267.857,120.862L303.571,65.096L339.286,63.489L375,59.847L410.714,51.191L446.429,53.12L482.143,87.718" stroke="#68C2FF" stroke-width="2"/></g></g><path class="foreground" aria-hidden="true" d="" display="none"/></g><g transform="translate(0,0)"><path class="background" aria-hidden="true" d="M0,0h500v400h-500Z"/><g><g class="mark-line role-mark marks" role="graphics-object" aria-roledescription="line mark container"><path aria-label="Year: 2007; % of GDP: 1.24031; Education Level: Secondary" role="graphics-symbol" aria-roledescription="line mark" d="M17.857,124.376L53.571,80.902L89.286,66.876L125,97.118L160.714,106.929L196.429,69.144L232.143,104.6L267.857,79.987L303.571,53.338L339.286,56.771L375,55.589L410.714,41.973L446.429,43.731L482.143,73.473" stroke="#D7E8BA" stroke-width="2"/></g></g><path class="foreground" aria-hidden="true" d="" display="none"/></g><g transform="translate(0,0)"><path class="background" aria-hidden="true" d="M0,0h500v400h-500Z"/><g><g class="mark-line role-mark marks" role="graphics-object" aria-roledescription="line mark container"><path aria-label="Year: 2007; % of GDP: 0.49502; Education Level: Tertiary" role="graphics-symbol" aria-roledescription="line mark" d="M17.857,289.996L53.571,277.696L89.286,252.484L125,192.107L160.714,203.3L196.429,186.902L232.143,139.224L267.857,120.129L303.571,97.147L339.286,95.144L375,93.224L410.714,79.836L446.429,78.587L482.143,113.171" stroke="#2E3A8A" stroke-width="2"/></g></g><path class="foreground" aria-hidden="true" d="" display="none"/></g></g><g class="mark-group role-legend" role="graphics-symbol" aria-roledescription="legend" aria-label="Symbol legend titled 'Education Level' for stroke color with 3 values: Primary, Secondary, Tertiary"><g transform="translate(397,320)"><path class="background" aria-hidden="true" d="M0,0h85v62h-85Z" pointer-events="none"/><g><g class="mark-group role-legend-entry"><g transform="translate(0,16)"><path class="background" aria-hidden="true" d="M0,0h0v0h0Z" pointer-events="none"/><g><g class="mark-group role-scope" role="graphics-object" aria-roledescription="group mark container"><g transform="translate(0,0)"><path class="background" aria-hidden="true" d="M0,0h84.9306640625v14h-84.9306640625Z" pointer-events="none" opacity="1"/><g><g class="mark-symbol role-legend-symbol" pointer-events="none"><path transform="translate(7,7)" d="M-5,0L5,0" stroke="#68C2FF" stroke-width="1.5" opacity="1"/></g><g class="mark-text role-legend-label" pointer-events="none"><text text-anchor="start" transform="translate(18,11)" font-family="sans-serif" font-size="14px" fill="#000" opacity="1">Primary</text></g></g><path class="foreground" aria-hidden="true" d="" pointer-events="none" display="none"/></g><g transform="translate(0,16)"><path class="background" aria-hidden="true" d="M0,0h84.9306640625v14h-84.9306640625Z" pointer-events="none" opacity="1"/><g><g class="mark-symbol role-legend-symbol" pointer-events="none"><path transform="translate(7,7)" d="M-5,0L5,0" stroke="#D7E8BA" stroke-width="1.5" opacity="1"/></g><g class="mark-text role-legend-label" pointer-events="none"><text text-anchor="start" transform="translate(18,11)" font-family="sans-serif" font-size="14px" fill="#000" opacity="1">Secondary</text></g></g><path class="foreground" aria-hidden="true" d="" pointer-events="none" display="none"/></g><g transform="translate(0,32)"><path class="background" aria-hidden="true" d="M0,0h84.9306640625v14h-84.9306640625Z" pointer-events="none" opacity="1"/><g><g class="mark-symbol role-legend-symbol" pointer-events="none"><path transform="translate(7,7)" d="M-5,0L5,0" stroke="#2E3A8A" stroke-width="1.5" opacity="1"/></g><g class="mark-text role-legend-label" pointer-events="none"><text text-anchor="start" transform="translate(18,11)" font-family="sans-serif" font-size="14px" fill="#000" opacity="1">Tertiary</text></g></g><path class="foreground" aria-hidden="true" d="" pointer-events="none" display="none"/></g></g></g><path class="foreground" aria-hidden="true" d="" pointer-events="none" display="none"/></g></g><g class="mark-text role-legend-title" pointer-events="none"><text text-anchor="start" transform="translate(0,9)" font-family="sans-serif" font-size="11px" font-weight="bold" fill="#000" opacity="1">Education Level</text></g></g><path class="foreground" aria-hidden="true" d="" pointer-events="none" display="none"/></g></g><g class="mark-group role-title"><g transform="translate(250,-31)"><path class="background" aria-hidden="true" d="M0,0h0v0h0Z" pointer-events="none"/><g><g class="mark-text role-title-text" role="graphics-symbol" aria-roledescription="title" aria-label="Title text 'Level spending (% of GDP) by level 2006-2021'" pointer-events="none"><text text-anchor="middle" transform="translate(0,16)" font-family="sans-serif" font-size="20px" font-weight="bold" fill="#000" opacity="1">Level spending (% of GDP) by level 2006-2021</text></g></g><path class="foreground" aria-hidden="true" d="" pointer-events="none" display="none"/></g></g></g><path class="foreground" aria-hidden="true" d="" display="none"/></g></g></g></svg>